<svg id="Capa_1" data-name="Capa 1" xmlns="http://www.w3.org/2000/svg" viewBox="0 0 375 180"><defs><style>.cls-1{fill:#1d1d1b;}.cls-2{fill:#f7a813;}</style></defs><title>logonavbar</title><path class="cls-1" d="M336.26,86.61c-.24-.55-.5-1.1-.76-1.65-.14-.29-.28-.58-.43-.87s-.31-.62-.47-.92l0-.06c-.55-1-1.14-2.07-1.76-3.07A50.33,50.33,0,0,0,325.65,71l-.14-.14-.1-.1-.64-.63h0l-.22-.22a51.68,51.68,0,0,0-14.47-9.64,45.41,45.41,0,0,0-18.67-4,48.91,48.91,0,0,0-20,3.9A47.94,47.94,0,0,0,255.92,70.7,47.08,47.08,0,0,0,246,86.29a51.58,51.58,0,0,0-.14,37.3,47.18,47.18,0,0,0,9.85,15.59,47.65,47.65,0,0,0,15.37,10.72,49,49,0,0,0,20,4,45.53,45.53,0,0,0,18.7-3.91,51.36,51.36,0,0,0,26.38-26.12,45.76,45.76,0,0,0,.13-37.31m-21.09,28.24a28.78,28.78,0,0,1-5.95,8.34,31,31,0,0,1-8.39,5.83,22.24,22.24,0,0,1-9.7,2.2,25.31,25.31,0,0,1-24.21-16.55A26.82,26.82,0,0,1,272.18,87a25.29,25.29,0,0,1,8.18-5.9,25.86,25.86,0,0,1,10.95-2.19A22.21,22.21,0,0,1,301,81.19a30,30,0,0,1,7.29,4.94c.06.06.13.11.19.18l.15.14c.19.17.37.35.54.53l.06,0,.11.11a30.2,30.2,0,0,1,5.9,8.39c.23.48.44,1,.63,1.45a23.25,23.25,0,0,1,1.1,3.66l.06.31c.06.31.12.63.17.94s.11.83.14,1.24c.07.7.1,1.4.1,2.1a22.38,22.38,0,0,1-2.27,9.62M240,78.33l.56-20.57-19.46,3.8.05-28.29L195.83,45.41l-.21,21.12-12.09,2.36-.64,20.58L195.54,87l-.07,34.6c0,1.12,0,2.33,0,3.65s0,2.61.09,3.89.15,2.51.27,3.72.28,2.26.45,3.16a34.49,34.49,0,0,0,2.65,8.26,17.54,17.54,0,0,0,4.77,6.14,16.7,16.7,0,0,0,7.42,3.29,27.84,27.84,0,0,0,10.5-.33,43.18,43.18,0,0,0,5.18-1.37q2.61-.85,5-1.85c1.59-.66,3-1.33,4.35-2a34.69,34.69,0,0,0,3.3-1.87l.06-20.56c-.54.34-1.26.76-2.17,1.26s-1.84,1-2.82,1.47a31.52,31.52,0,0,1-2.92,1.27,13.87,13.87,0,0,1-2.39.73q-3.69.72-5.6-.57T221,125.22a14,14,0,0,1-.21-1.93c0-.79-.08-1.61-.11-2.48s-.05-1.75-.05-2.63,0-1.69-.07-2.45l.26-33.67ZM181.69,116.4a27.7,27.7,0,0,0-2.86-8.27,20.8,20.8,0,0,0-4.9-5.93A28.36,28.36,0,0,0,166.87,98a80.29,80.29,0,0,0-9.37-3.26,34.84,34.84,0,0,1-7.42-3.12,7.33,7.33,0,0,1-3.59-5.18,7.75,7.75,0,0,1,1.4-6.24q2.06-2.87,7.91-4a28.27,28.27,0,0,1,5.22-.5c1.83,0,3.64.09,5.42.26a51.51,51.51,0,0,1,5.1.77,40.75,40.75,0,0,1,4.28,1.09V56.88q-2.22-.27-5.07-.42c-1.9-.1-3.9-.11-6-.06s-4.23.2-6.4.42-4.28.52-6.31.92q-10,1.95-16.34,5.95a31.92,31.92,0,0,0-9.68,9,25.31,25.31,0,0,0-4.15,10.47A30.48,30.48,0,0,0,122,93.45a26.55,26.55,0,0,0,2.81,8,20.88,20.88,0,0,0,4.89,5.89,29.32,29.32,0,0,0,6.94,4.27,64.91,64.91,0,0,0,9,3.17c4,1.08,7,2.28,8.76,3.6a8.09,8.09,0,0,1,3.34,5.18,7.22,7.22,0,0,1-1.75,6.58q-2.49,2.76-8.5,3.94a34.22,34.22,0,0,1-6.61.63,61.05,61.05,0,0,1-6.68-.36,59.52,59.52,0,0,1-6.23-1,49.72,49.72,0,0,1-5.27-1.43l.21,21.12a45.11,45.11,0,0,0,5.85.79q3.25.24,6.73.18c2.32,0,4.65-.18,7-.4a65.34,65.34,0,0,0,6.55-.93,56.33,56.33,0,0,0,17.49-6,34.09,34.09,0,0,0,10.52-9,25,25,0,0,0,4.69-10.52,28.77,28.77,0,0,0,0-10.71M102.44,32.28a12.62,12.62,0,0,0-2.09-5,13,13,0,0,0-3.77-3.52,14,14,0,0,0-5-1.84,16.24,16.24,0,0,0-5.8.12,18.2,18.2,0,0,0-5.89,2.2,14.36,14.36,0,0,0-4.27,3.87,13.94,13.94,0,0,0-2.33,5.15,14.8,14.8,0,0,0,0,6.15,12.37,12.37,0,0,0,2.09,4.94,12.77,12.77,0,0,0,3.76,3.53,13.79,13.79,0,0,0,5,1.83A16.23,16.23,0,0,0,90,49.63a17.45,17.45,0,0,0,5.77-2.18A14.3,14.3,0,0,0,100,43.59a14.13,14.13,0,0,0,2.41-11.31m9.78,96.54a19.55,19.55,0,0,1-4.11,1.29,7.93,7.93,0,0,1-4.65-.41c-1.45-.6-2.38-2-2.8-4.11a34.78,34.78,0,0,1-.53-6.53q0-3.81.07-6.9l.27-50.62-25.63,5q0,1.5-.06,5.49t0,9.19c0,3.46,0,7.1-.07,10.94s-.05,7.49-.07,11,0,6.51,0,9.18,0,4.5,0,5.49c0,1.65,0,3.35,0,5.13s.11,3.52.23,5.22.24,3.34.41,4.89.36,2.94.61,4.18a27.24,27.24,0,0,0,2.73,7.85,16.68,16.68,0,0,0,4.88,5.63,17,17,0,0,0,7.1,2.92,25.8,25.8,0,0,0,9.46-.31c1.5-.29,3-.66,4.49-1.09s2.92-.92,4.29-1.46,2.65-1.06,3.85-1.58,2.25-1,3.16-1.49c0-3.52,0-7,0-10.42s0-6.89.05-10.41a21,21,0,0,1-3.65,2m-47.37.25a20.24,20.24,0,0,1-4.12,1.29,8,8,0,0,1-4.65-.41c-1.44-.6-2.38-2-2.8-4.11a34.86,34.86,0,0,1-.52-6.53q0-3.81.07-6.9l.56-93.88-25.64,5c0,.77,0,2.63,0,5.59s0,6.6-.07,10.94-.07,9.16-.09,14.46,0,10.72-.11,16.26-.09,11-.11,16.27-.05,10.12-.09,14.46-.06,8-.07,10.94,0,4.82,0,5.58c0,1.64,0,3.35,0,5.13s.12,3.52.23,5.22.25,3.33.41,4.88.37,3,.61,4.19a27.25,27.25,0,0,0,2.74,7.85,16.68,16.68,0,0,0,4.88,5.63,17.06,17.06,0,0,0,7.1,2.92,25.8,25.8,0,0,0,9.46-.31c1.49-.29,3-.66,4.48-1.1s2.93-.92,4.29-1.45,2.65-1.06,3.85-1.58,2.26-1,3.16-1.5c0-3.51,0-7,0-10.41s0-6.89,0-10.41a21.69,21.69,0,0,1-3.65,2"/><path class="cls-2" d="M335.35,83.63l-45.63,45.88-22.81-22.82L279,94.62l10.74,10.74L325,69.85c.23.21.45.43.67.66l.11.1.15.15a53.46,53.46,0,0,1,7.55,9.58c.65,1,1.27,2.13,1.85,3.23l0,.06"/></svg>