<?xml version="1.0" encoding="utf-8"?>
<!-- Generator: Adobe Illustrator 24.0.2, SVG Export Plug-In . SVG Version: 6.00 Build 0)  -->
<svg version="1.1" id="Capa_1" xmlns="http://www.w3.org/2000/svg" xmlns:xlink="http://www.w3.org/1999/xlink" x="0px" y="0px"
	 viewBox="0 0 63.16 30" style="enable-background:new 0 0 63.16 30;" xml:space="preserve">
<style type="text/css">
	.st0{fill:#837A73;}
	.st1{opacity:0.32;fill:#837A73;}
	.st2{opacity:0.55;fill:#837A73;}
	.st3{opacity:0.85;fill:#837A73;}
	.st4{opacity:0.5;fill:#837A73;}
	.st5{fill:#164D4B;}
	.st6{fill:none;stroke:#19736C;stroke-miterlimit:10;}
	.st7{clip-path:url(#SVGID_2_);fill:#164D4B;}
	.st8{clip-path:url(#SVGID_2_);}
	.st9{clip-path:url(#SVGID_4_);}
	.st10{clip-path:url(#SVGID_4_);fill:#164D4B;}
	.st11{clip-path:url(#SVGID_6_);fill:#164D4B;}
	.st12{clip-path:url(#SVGID_6_);}
	.st13{clip-path:url(#SVGID_8_);fill:#164D4B;}
	.st14{fill:#FFFFFF;}
	.st15{fill:none;stroke:#583015;stroke-miterlimit:10;}
	.st16{fill:none;stroke:#164D4B;stroke-miterlimit:10;}
	.st17{fill:none;stroke:#164D4B;stroke-width:0.25;stroke-miterlimit:10;}
	.st18{fill:none;stroke:#573016;stroke-width:0.25;stroke-miterlimit:10;}
	.st19{clip-path:url(#SVGID_10_);}
	.st20{clip-path:url(#SVGID_12_);fill:#1C1D1C;}
	.st21{clip-path:url(#SVGID_12_);fill:#151616;}
	.st22{clip-path:url(#SVGID_12_);fill:none;stroke:#F7A813;stroke-miterlimit:10;}
	.st23{clip-path:url(#SVGID_12_);}
	.st24{clip-path:url(#SVGID_14_);fill:#FFFFFF;}
	.st25{clip-path:url(#SVGID_14_);fill:#F7A813;}
	.st26{clip-path:url(#SVGID_14_);fill:#BCBCBB;}
	.st27{opacity:0.4;clip-path:url(#SVGID_16_);}
	.st28{clip-path:url(#SVGID_18_);fill:#21283A;}
	.st29{clip-path:url(#SVGID_16_);fill:#E5241D;}
	.st30{clip-path:url(#SVGID_16_);fill:#E62E2C;}
	.st31{clip-path:url(#SVGID_16_);fill:#BA1818;}
	.st32{opacity:0.6;clip-path:url(#SVGID_16_);}
	.st33{clip-path:url(#SVGID_20_);fill:#CF181A;}
	.st34{clip-path:url(#SVGID_16_);fill:#FFF9EA;}
	.st35{clip-path:url(#SVGID_16_);fill:#FAE9D3;}
	.st36{clip-path:url(#SVGID_16_);fill:#D8C5B4;}
	.st37{clip-path:url(#SVGID_16_);fill:#FFDA33;}
	.st38{clip-path:url(#SVGID_16_);fill:#894B1F;}
	.st39{clip-path:url(#SVGID_16_);fill:#FBBB2D;}
	.st40{clip-path:url(#SVGID_16_);fill:#F7EB61;}
	.st41{clip-path:url(#SVGID_16_);fill:#F6F6F6;}
	.st42{fill:#1C1D1C;}
	.st43{clip-path:url(#SVGID_22_);}
	.st44{fill:#151616;}
	.st45{fill:none;stroke:#F7A813;stroke-miterlimit:10;}
	.st46{fill:none;}
	.st47{fill:#F7A813;}
	.st48{fill:#BCBCBB;}
	.st49{opacity:0.4;fill:#21283A;}
	.st50{fill:#E5241D;}
	.st51{fill:#E62E2C;}
	.st52{fill:#BA1818;}
	.st53{opacity:0.6;fill:#CF181A;}
	.st54{fill:#FFF9EA;}
	.st55{fill:#FAE9D3;}
	.st56{fill:#D8C5B4;}
	.st57{fill:#FFDA33;}
	.st58{fill:#894B1F;}
	.st59{fill:#FBBB2D;}
	.st60{fill:#F7EB61;}
	.st61{clip-path:url(#SVGID_28_);}
	.st62{clip-path:url(#SVGID_28_);fill:#151616;}
	.st63{clip-path:url(#SVGID_32_);fill:#FFFFFF;}
	.st64{clip-path:url(#SVGID_32_);fill:#F7A813;}
	.st65{clip-path:url(#SVGID_32_);fill:#BCBCBB;}
	.st66{clip-path:url(#SVGID_28_);fill:#1C1D1C;}
	.st67{clip-path:url(#SVGID_28_);fill:none;stroke:#F7A813;stroke-width:2.5457;stroke-miterlimit:10;}
	.st68{clip-path:url(#SVGID_34_);}
	.st69{clip-path:url(#SVGID_34_);fill:#151616;}
	.st70{clip-path:url(#SVGID_38_);fill:#FFFFFF;}
	.st71{clip-path:url(#SVGID_38_);fill:#F7A813;}
	.st72{clip-path:url(#SVGID_38_);fill:#BCBCBB;}
	.st73{clip-path:url(#SVGID_34_);fill:#1C1D1C;}
	.st74{clip-path:url(#SVGID_34_);fill:none;stroke:#F7A813;stroke-width:2.5457;stroke-miterlimit:10;}
	.st75{fill:none;stroke:#009640;stroke-miterlimit:10;}
	.st76{fill:none;stroke:#BE1622;stroke-miterlimit:10;}
	.st77{fill:#FFFFFF;stroke:#000000;stroke-miterlimit:10;}
	.st78{clip-path:url(#SVGID_40_);}
	.st79{clip-path:url(#SVGID_42_);}
	.st80{clip-path:url(#SVGID_42_);fill:#151616;}
	.st81{clip-path:url(#SVGID_46_);fill:#FFFFFF;}
	.st82{clip-path:url(#SVGID_46_);fill:#F7A813;}
	.st83{clip-path:url(#SVGID_46_);fill:#BCBCBB;}
	.st84{clip-path:url(#SVGID_42_);fill:#1C1D1C;}
	.st85{clip-path:url(#SVGID_42_);fill:none;stroke:#F7A813;stroke-width:2.5457;stroke-miterlimit:10;}
	.st86{clip-path:url(#SVGID_48_);}
	.st87{clip-path:url(#SVGID_48_);fill:#151616;}
	.st88{clip-path:url(#SVGID_52_);fill:#FFFFFF;}
	.st89{clip-path:url(#SVGID_52_);fill:#F7A813;}
	.st90{clip-path:url(#SVGID_52_);fill:#BCBCBB;}
	.st91{clip-path:url(#SVGID_48_);fill:#1C1D1C;}
	.st92{clip-path:url(#SVGID_48_);fill:none;stroke:#F7A813;stroke-width:2.5457;stroke-miterlimit:10;}
	.st93{clip-path:url(#SVGID_54_);}
	.st94{clip-path:url(#SVGID_54_);fill:#151616;}
	.st95{clip-path:url(#SVGID_58_);fill:#FFFFFF;}
	.st96{clip-path:url(#SVGID_58_);fill:#F7A813;}
	.st97{clip-path:url(#SVGID_58_);fill:#BCBCBB;}
	.st98{clip-path:url(#SVGID_54_);fill:#1C1D1C;}
	.st99{clip-path:url(#SVGID_54_);fill:none;stroke:#F7A813;stroke-width:2.5457;stroke-miterlimit:10;}
	.st100{clip-path:url(#SVGID_60_);}
	.st101{clip-path:url(#SVGID_60_);fill:#151616;}
	.st102{clip-path:url(#SVGID_64_);fill:#FFFFFF;}
	.st103{clip-path:url(#SVGID_64_);fill:#F7A813;}
	.st104{clip-path:url(#SVGID_64_);fill:#BCBCBB;}
	.st105{clip-path:url(#SVGID_60_);fill:#1C1D1C;}
	.st106{clip-path:url(#SVGID_60_);fill:none;stroke:#F7A813;stroke-width:2.5457;stroke-miterlimit:10;}
	.st107{clip-path:url(#SVGID_66_);}
	.st108{clip-path:url(#SVGID_66_);fill:#151616;}
	.st109{clip-path:url(#SVGID_70_);fill:#FFFFFF;}
	.st110{clip-path:url(#SVGID_70_);fill:#F7A813;}
	.st111{clip-path:url(#SVGID_70_);fill:#BCBCBB;}
	.st112{clip-path:url(#SVGID_66_);fill:#1C1D1C;}
	.st113{clip-path:url(#SVGID_66_);fill:none;stroke:#F7A813;stroke-width:2.5457;stroke-miterlimit:10;}
	.st114{clip-path:url(#SVGID_72_);}
	.st115{clip-path:url(#SVGID_72_);fill:#151616;}
	.st116{clip-path:url(#SVGID_76_);fill:#FFFFFF;}
	.st117{clip-path:url(#SVGID_76_);fill:#F7A813;}
	.st118{clip-path:url(#SVGID_76_);fill:#BCBCBB;}
	.st119{clip-path:url(#SVGID_72_);fill:#1C1D1C;}
	.st120{clip-path:url(#SVGID_72_);fill:none;stroke:#F7A813;stroke-width:2.5457;stroke-miterlimit:10;}
	.st121{clip-path:url(#SVGID_78_);}
	.st122{clip-path:url(#SVGID_78_);fill:#151616;}
	.st123{clip-path:url(#SVGID_82_);fill:#FFFFFF;}
	.st124{clip-path:url(#SVGID_82_);fill:#F7A813;}
	.st125{clip-path:url(#SVGID_82_);fill:#BCBCBB;}
	.st126{clip-path:url(#SVGID_78_);fill:#1C1D1C;}
	.st127{clip-path:url(#SVGID_78_);fill:none;stroke:#F7A813;stroke-width:2.5457;stroke-miterlimit:10;}
	.st128{clip-path:url(#SVGID_84_);}
	.st129{clip-path:url(#SVGID_84_);fill:#151616;}
	.st130{clip-path:url(#SVGID_88_);fill:#FFFFFF;}
	.st131{clip-path:url(#SVGID_88_);fill:#F7A813;}
	.st132{clip-path:url(#SVGID_88_);fill:#BCBCBB;}
	.st133{clip-path:url(#SVGID_84_);fill:#1C1D1C;}
	.st134{clip-path:url(#SVGID_84_);fill:none;stroke:#F7A813;stroke-width:2.5457;stroke-miterlimit:10;}
	.st135{fill:#28190F;}
	.st136{fill:url(#SVGID_89_);}
	.st137{fill:url(#SVGID_90_);}
	.st138{fill:url(#SVGID_91_);}
	.st139{fill:url(#SVGID_92_);}
	.st140{fill:url(#SVGID_93_);}
	.st141{fill:url(#SVGID_94_);}
	.st142{fill:url(#SVGID_95_);}
	.st143{fill:url(#SVGID_96_);}
	.st144{fill:url(#SVGID_97_);}
	.st145{fill:url(#SVGID_98_);}
	.st146{fill:url(#SVGID_99_);}
	.st147{opacity:0.2;fill:url(#SVGID_100_);}
	.st148{opacity:0.4;fill:url(#SVGID_101_);}
	.st149{fill:url(#SVGID_102_);}
	.st150{fill:url(#SVGID_103_);}
	.st151{fill:url(#SVGID_104_);}
	.st152{fill:url(#SVGID_105_);}
	.st153{fill:url(#SVGID_106_);}
	.st154{fill:url(#SVGID_107_);}
	.st155{fill:url(#SVGID_108_);}
	.st156{fill:url(#SVGID_109_);}
	.st157{fill:url(#SVGID_110_);}
	.st158{fill:url(#SVGID_111_);}
	.st159{opacity:0;fill:#FFFFFF;}
	.st160{opacity:0.0222;fill:#FFFFFF;}
	.st161{opacity:0.0444;fill:#FFFFFF;}
	.st162{opacity:0.0667;fill:#FFFFFF;}
	.st163{opacity:0.0889;fill:#FFFFFF;}
	.st164{opacity:0.1111;fill:#FFFFFF;}
	.st165{opacity:0.1333;fill:#FFFFFF;}
	.st166{opacity:0.1556;fill:#FFFFFF;}
	.st167{opacity:0.1778;fill:#FFFFFF;}
	.st168{opacity:0.2;fill:#FFFFFF;}
	.st169{fill:url(#SVGID_112_);}
	.st170{fill:url(#SVGID_113_);}
	.st171{fill:url(#SVGID_114_);}
	.st172{fill:url(#SVGID_115_);}
	.st173{fill:url(#SVGID_116_);}
	.st174{fill:url(#SVGID_117_);}
	.st175{fill:url(#SVGID_118_);}
	.st176{fill:url(#SVGID_119_);}
	.st177{fill:url(#SVGID_120_);}
	.st178{opacity:0;fill:url(#SVGID_121_);}
	.st179{opacity:0.1111;fill:url(#SVGID_122_);}
	.st180{opacity:0.2222;fill:url(#SVGID_123_);}
	.st181{opacity:0.3333;fill:url(#SVGID_124_);}
	.st182{opacity:0.4444;fill:url(#SVGID_125_);}
	.st183{opacity:0.5556;fill:url(#SVGID_126_);}
	.st184{opacity:0.6667;fill:url(#SVGID_127_);}
	.st185{opacity:0.7778;fill:url(#SVGID_128_);}
	.st186{opacity:0.8889;fill:url(#SVGID_129_);}
	.st187{fill:url(#SVGID_130_);}
	.st188{fill:url(#SVGID_131_);}
	.st189{opacity:0.5;fill:url(#SVGID_132_);}
	.st190{opacity:0;fill:#AC753E;}
	.st191{opacity:0.1111;fill:#AC753E;}
	.st192{opacity:0.2222;fill:#AC753E;}
	.st193{opacity:0.3333;fill:#AC753E;}
	.st194{opacity:0.4444;fill:#AC753E;}
	.st195{opacity:0.5556;fill:#AC753E;}
	.st196{opacity:0.6667;fill:#AC753E;}
	.st197{opacity:0.7778;fill:#AC753E;}
	.st198{opacity:0.8889;fill:#AC753E;}
	.st199{fill:#AC753E;}
	.st200{fill:#97683D;}
	.st201{fill:#845D3C;}
	.st202{fill:#72523A;}
	.st203{fill:#614736;}
	.st204{fill:#503D32;}
	.st205{fill:#41332D;}
	.st206{fill:#322927;}
	.st207{fill:#241F20;}
	.st208{fill:#161417;}
	.st209{opacity:0;fill:#CA915E;}
	.st210{opacity:9.523810e-03;fill:#CA915E;}
	.st211{opacity:0.019;fill:#CA915E;}
	.st212{opacity:0.0286;fill:#CA915E;}
	.st213{opacity:0.0381;fill:#CA915E;}
	.st214{opacity:0.0476;fill:#CA915E;}
	.st215{opacity:0.0571;fill:#CA915E;}
	.st216{opacity:0.0667;fill:#CA915E;}
	.st217{opacity:0.0762;fill:#CA915E;}
	.st218{opacity:0.0857;fill:#CA915E;}
	.st219{opacity:0.0952;fill:#CA915E;}
	.st220{opacity:0.1048;fill:#CA915E;}
	.st221{opacity:0.1143;fill:#CA915E;}
	.st222{opacity:0.1238;fill:#CA915E;}
	.st223{opacity:0.1333;fill:#CA915E;}
	.st224{opacity:0.1429;fill:#CA915E;}
	.st225{opacity:0.1524;fill:#CA915E;}
	.st226{opacity:0.1619;fill:#CA915E;}
	.st227{opacity:0.1714;fill:#CA915E;}
	.st228{opacity:0.181;fill:#CA915E;}
	.st229{opacity:0.1905;fill:#CA915E;}
	.st230{opacity:0.2;fill:#CA915E;}
	.st231{opacity:0.2381;fill:#CA915E;}
	.st232{opacity:0.2762;fill:#CA915E;}
	.st233{opacity:0.3143;fill:#CA915E;}
	.st234{opacity:0.3524;fill:#CA915E;}
	.st235{opacity:0.3905;fill:#CA915E;}
	.st236{opacity:0.4286;fill:#CA915E;}
	.st237{opacity:0.4667;fill:#CA915E;}
	.st238{opacity:0.5048;fill:#CA915E;}
	.st239{opacity:0.5429;fill:#CA915E;}
	.st240{opacity:0.581;fill:#CA915E;}
	.st241{opacity:0.619;fill:#CA915E;}
	.st242{opacity:0.6571;fill:#CA915E;}
	.st243{opacity:0.6952;fill:#CA915E;}
	.st244{opacity:0.7333;fill:#CA915E;}
	.st245{opacity:0.7714;fill:#CA915E;}
	.st246{opacity:0.8095;fill:#CA915E;}
	.st247{opacity:0.8476;fill:#CA915E;}
	.st248{opacity:0.8857;fill:#CA915E;}
	.st249{opacity:0.9238;fill:#CA915E;}
	.st250{opacity:0.9619;fill:#CA915E;}
	.st251{fill:#CA915E;}
	.st252{opacity:0.2;}
	.st253{opacity:0.0476;fill:#FFFFFF;}
	.st254{opacity:0.0952;fill:#FFFFFF;}
	.st255{opacity:0.1429;fill:#FFFFFF;}
	.st256{opacity:0.1905;fill:#FFFFFF;}
	.st257{opacity:0.2381;fill:#FFFFFF;}
	.st258{opacity:0.2857;fill:#FFFFFF;}
	.st259{opacity:0.3333;fill:#FFFFFF;}
	.st260{opacity:0.381;fill:#FFFFFF;}
	.st261{opacity:0.4286;fill:#FFFFFF;}
	.st262{opacity:0.4762;fill:#FFFFFF;}
	.st263{opacity:0.5238;fill:#FFFFFF;}
	.st264{opacity:0.5714;fill:#FFFFFF;}
	.st265{opacity:0.619;fill:#FFFFFF;}
	.st266{opacity:0.6667;fill:#FFFFFF;}
	.st267{opacity:0.7143;fill:#FFFFFF;}
	.st268{opacity:0.7619;fill:#FFFFFF;}
	.st269{opacity:0.8095;fill:#FFFFFF;}
	.st270{opacity:0.8571;fill:#FFFFFF;}
	.st271{opacity:0.9048;fill:#FFFFFF;}
	.st272{opacity:0.9524;fill:#FFFFFF;}
	.st273{clip-path:url(#SVGID_134_);}
	.st274{clip-path:url(#SVGID_134_);fill:#151616;}
	.st275{clip-path:url(#SVGID_138_);fill:#FFFFFF;}
	.st276{clip-path:url(#SVGID_138_);fill:#F7A813;}
	.st277{clip-path:url(#SVGID_138_);fill:#BCBCBB;}
	.st278{clip-path:url(#SVGID_134_);fill:#1C1D1C;}
	.st279{clip-path:url(#SVGID_134_);fill:none;stroke:#F7A813;stroke-width:2.5457;stroke-miterlimit:10;}
	.st280{clip-path:url(#SVGID_140_);}
	.st281{clip-path:url(#SVGID_140_);fill:#151616;}
	.st282{clip-path:url(#SVGID_144_);fill:#FFFFFF;}
	.st283{clip-path:url(#SVGID_144_);fill:#F7A813;}
	.st284{clip-path:url(#SVGID_144_);fill:#BCBCBB;}
	.st285{clip-path:url(#SVGID_140_);fill:#1C1D1C;}
	.st286{clip-path:url(#SVGID_140_);fill:none;stroke:#F7A813;stroke-width:2.5457;stroke-miterlimit:10;}
	.st287{clip-path:url(#SVGID_146_);}
	.st288{clip-path:url(#SVGID_146_);fill:#151616;}
	.st289{clip-path:url(#SVGID_150_);fill:#FFFFFF;}
	.st290{clip-path:url(#SVGID_150_);fill:#F7A813;}
	.st291{clip-path:url(#SVGID_150_);fill:#BCBCBB;}
	.st292{clip-path:url(#SVGID_146_);fill:#1C1D1C;}
	.st293{clip-path:url(#SVGID_146_);fill:none;stroke:#F7A813;stroke-width:2.5457;stroke-miterlimit:10;}
	.st294{clip-path:url(#SVGID_152_);}
	.st295{clip-path:url(#SVGID_152_);fill:#151616;}
	.st296{clip-path:url(#SVGID_156_);fill:#FFFFFF;}
	.st297{clip-path:url(#SVGID_156_);fill:#F7A813;}
	.st298{clip-path:url(#SVGID_156_);fill:#BCBCBB;}
	.st299{clip-path:url(#SVGID_152_);fill:#1C1D1C;}
	.st300{clip-path:url(#SVGID_152_);fill:none;stroke:#F7A813;stroke-width:2.5457;stroke-miterlimit:10;}
	.st301{clip-path:url(#SVGID_158_);}
	.st302{clip-path:url(#SVGID_158_);fill:#151616;}
	.st303{clip-path:url(#SVGID_162_);fill:#FFFFFF;}
	.st304{clip-path:url(#SVGID_162_);fill:#F7A813;}
	.st305{clip-path:url(#SVGID_162_);fill:#BCBCBB;}
	.st306{clip-path:url(#SVGID_158_);fill:#1C1D1C;}
	.st307{clip-path:url(#SVGID_158_);fill:none;stroke:#F7A813;stroke-width:2.5457;stroke-miterlimit:10;}
	.st308{clip-path:url(#SVGID_164_);}
	.st309{clip-path:url(#SVGID_164_);fill:#151616;}
	.st310{clip-path:url(#SVGID_168_);fill:#FFFFFF;}
	.st311{clip-path:url(#SVGID_168_);fill:#F7A813;}
	.st312{clip-path:url(#SVGID_168_);fill:#BCBCBB;}
	.st313{clip-path:url(#SVGID_164_);fill:#1C1D1C;}
	.st314{clip-path:url(#SVGID_164_);fill:none;stroke:#F7A813;stroke-width:2.5457;stroke-miterlimit:10;}
	.st315{clip-path:url(#SVGID_170_);}
	.st316{clip-path:url(#SVGID_170_);fill:#151616;}
	.st317{clip-path:url(#SVGID_174_);fill:#FFFFFF;}
	.st318{clip-path:url(#SVGID_174_);fill:#F7A813;}
	.st319{clip-path:url(#SVGID_174_);fill:#BCBCBB;}
	.st320{clip-path:url(#SVGID_170_);fill:#1C1D1C;}
	.st321{clip-path:url(#SVGID_170_);fill:none;stroke:#F7A813;stroke-width:2.5457;stroke-miterlimit:10;}
	.st322{clip-path:url(#SVGID_176_);}
	.st323{clip-path:url(#SVGID_176_);fill:#151616;}
	.st324{clip-path:url(#SVGID_180_);fill:#FFFFFF;}
	.st325{clip-path:url(#SVGID_180_);fill:#F7A813;}
	.st326{clip-path:url(#SVGID_180_);fill:#BCBCBB;}
	.st327{clip-path:url(#SVGID_176_);fill:#1C1D1C;}
	.st328{clip-path:url(#SVGID_176_);fill:none;stroke:#F7A813;stroke-width:2.5457;stroke-miterlimit:10;}
	.st329{clip-path:url(#SVGID_182_);}
	.st330{clip-path:url(#SVGID_182_);fill:#151616;}
	.st331{clip-path:url(#SVGID_186_);fill:#FFFFFF;}
	.st332{clip-path:url(#SVGID_186_);fill:#F7A813;}
	.st333{clip-path:url(#SVGID_186_);fill:#BCBCBB;}
	.st334{clip-path:url(#SVGID_182_);fill:#1C1D1C;}
	.st335{clip-path:url(#SVGID_182_);fill:none;stroke:#F7A813;stroke-width:2.5457;stroke-miterlimit:10;}
	.st336{clip-path:url(#SVGID_188_);}
	.st337{clip-path:url(#SVGID_188_);fill:#151616;}
	.st338{clip-path:url(#SVGID_192_);fill:#FFFFFF;}
	.st339{clip-path:url(#SVGID_192_);fill:#F7A813;}
	.st340{clip-path:url(#SVGID_192_);fill:#BCBCBB;}
	.st341{clip-path:url(#SVGID_188_);fill:#1C1D1C;}
	.st342{clip-path:url(#SVGID_188_);fill:none;stroke:#F7A813;stroke-width:2.5457;stroke-miterlimit:10;}
	.st343{clip-path:url(#SVGID_194_);}
	.st344{clip-path:url(#SVGID_194_);fill:#151616;}
	.st345{clip-path:url(#SVGID_198_);fill:#FFFFFF;}
	.st346{clip-path:url(#SVGID_198_);fill:#F7A813;}
	.st347{clip-path:url(#SVGID_198_);fill:#BCBCBB;}
	.st348{clip-path:url(#SVGID_194_);fill:#1C1D1C;}
	.st349{clip-path:url(#SVGID_194_);fill:none;stroke:#F7A813;stroke-width:2.5457;stroke-miterlimit:10;}
	.st350{clip-path:url(#SVGID_200_);}
	.st351{clip-path:url(#SVGID_200_);fill:#151616;}
	.st352{clip-path:url(#SVGID_204_);fill:#FFFFFF;}
	.st353{clip-path:url(#SVGID_204_);fill:#F7A813;}
	.st354{clip-path:url(#SVGID_204_);fill:#BCBCBB;}
	.st355{clip-path:url(#SVGID_200_);fill:#1C1D1C;}
	.st356{clip-path:url(#SVGID_200_);fill:none;stroke:#F7A813;stroke-width:2.5457;stroke-miterlimit:10;}
	.st357{clip-path:url(#SVGID_206_);}
	.st358{clip-path:url(#SVGID_206_);fill:#151616;}
	.st359{clip-path:url(#SVGID_210_);fill:#FFFFFF;}
	.st360{clip-path:url(#SVGID_210_);fill:#F7A813;}
	.st361{clip-path:url(#SVGID_210_);fill:#BCBCBB;}
	.st362{clip-path:url(#SVGID_206_);fill:#1C1D1C;}
	.st363{clip-path:url(#SVGID_206_);fill:none;stroke:#F7A813;stroke-width:2.5457;stroke-miterlimit:10;}
	.st364{fill:#1C1C1C;}
	.st365{fill:#E4A72D;}
	.st366{clip-path:url(#SVGID_212_);}
	.st367{clip-path:url(#SVGID_212_);fill:#151616;}
	.st368{clip-path:url(#SVGID_216_);fill:#FFFFFF;}
	.st369{clip-path:url(#SVGID_216_);fill:#F7A813;}
	.st370{clip-path:url(#SVGID_216_);fill:#BCBCBB;}
	.st371{clip-path:url(#SVGID_212_);fill:#1C1D1C;}
	.st372{clip-path:url(#SVGID_212_);fill:none;stroke:#F7A813;stroke-width:2.5457;stroke-miterlimit:10;}
	.st373{clip-path:url(#SVGID_218_);}
	.st374{clip-path:url(#SVGID_218_);fill:#151616;}
	.st375{clip-path:url(#SVGID_222_);fill:#FFFFFF;}
	.st376{clip-path:url(#SVGID_222_);fill:#F7A813;}
	.st377{clip-path:url(#SVGID_222_);fill:#BCBCBB;}
	.st378{clip-path:url(#SVGID_218_);fill:#1C1D1C;}
	.st379{clip-path:url(#SVGID_218_);fill:none;stroke:#F7A813;stroke-width:2.5457;stroke-miterlimit:10;}
	.st380{clip-path:url(#SVGID_224_);}
	.st381{clip-path:url(#SVGID_224_);fill:#151616;}
	.st382{clip-path:url(#SVGID_228_);fill:#FFFFFF;}
	.st383{clip-path:url(#SVGID_228_);fill:#F7A813;}
	.st384{clip-path:url(#SVGID_228_);fill:#BCBCBB;}
	.st385{clip-path:url(#SVGID_224_);fill:#1C1D1C;}
	.st386{clip-path:url(#SVGID_224_);fill:none;stroke:#F7A813;stroke-width:2.5457;stroke-miterlimit:10;}
	.st387{clip-path:url(#SVGID_230_);}
	.st388{clip-path:url(#SVGID_230_);fill:#151616;}
	.st389{clip-path:url(#SVGID_234_);fill:#FFFFFF;}
	.st390{clip-path:url(#SVGID_234_);fill:#F7A813;}
	.st391{clip-path:url(#SVGID_234_);fill:#BCBCBB;}
	.st392{clip-path:url(#SVGID_230_);fill:#1C1D1C;}
	.st393{clip-path:url(#SVGID_230_);fill:none;stroke:#F7A813;stroke-width:2.5457;stroke-miterlimit:10;}
	.st394{clip-path:url(#SVGID_236_);}
	.st395{clip-path:url(#SVGID_236_);fill:#151616;}
	.st396{clip-path:url(#SVGID_240_);fill:#FFFFFF;}
	.st397{clip-path:url(#SVGID_240_);fill:#F7A813;}
	.st398{clip-path:url(#SVGID_240_);fill:#BCBCBB;}
	.st399{clip-path:url(#SVGID_236_);fill:#1C1D1C;}
	.st400{clip-path:url(#SVGID_236_);fill:none;stroke:#F7A813;stroke-width:2.5457;stroke-miterlimit:10;}
	.st401{clip-path:url(#SVGID_242_);}
	.st402{clip-path:url(#SVGID_242_);fill:#151616;}
	.st403{clip-path:url(#SVGID_246_);fill:#FFFFFF;}
	.st404{clip-path:url(#SVGID_246_);fill:#F7A813;}
	.st405{clip-path:url(#SVGID_246_);fill:#BCBCBB;}
	.st406{clip-path:url(#SVGID_242_);fill:#1C1D1C;}
	.st407{clip-path:url(#SVGID_242_);fill:none;stroke:#F7A813;stroke-width:2.5457;stroke-miterlimit:10;}
	.st408{clip-path:url(#SVGID_248_);}
	.st409{clip-path:url(#SVGID_248_);fill:#151616;}
	.st410{clip-path:url(#SVGID_252_);fill:#FFFFFF;}
	.st411{clip-path:url(#SVGID_252_);fill:#F7A813;}
	.st412{clip-path:url(#SVGID_252_);fill:#BCBCBB;}
	.st413{clip-path:url(#SVGID_248_);fill:#1C1D1C;}
	.st414{clip-path:url(#SVGID_248_);fill:none;stroke:#F7A813;stroke-width:2.5457;stroke-miterlimit:10;}
	.st415{fill:url(#SVGID_253_);}
	.st416{fill:url(#SVGID_254_);}
	.st417{fill:url(#SVGID_255_);}
	.st418{fill:url(#SVGID_256_);}
	.st419{fill:url(#SVGID_257_);}
	.st420{fill:url(#SVGID_258_);}
	.st421{fill:url(#SVGID_259_);}
	.st422{fill:url(#SVGID_260_);}
	.st423{fill:url(#SVGID_261_);}
	.st424{fill:url(#SVGID_262_);}
	.st425{fill:url(#SVGID_263_);}
	.st426{opacity:0.2;fill:url(#SVGID_264_);}
	.st427{opacity:0.4;fill:url(#SVGID_265_);}
	.st428{fill:url(#SVGID_266_);}
	.st429{fill:url(#SVGID_267_);}
	.st430{fill:url(#SVGID_268_);}
	.st431{fill:url(#SVGID_269_);}
	.st432{fill:url(#SVGID_270_);}
	.st433{fill:url(#SVGID_271_);}
	.st434{fill:url(#SVGID_272_);}
	.st435{fill:url(#SVGID_273_);}
	.st436{fill:url(#SVGID_274_);}
	.st437{fill:url(#SVGID_275_);}
	.st438{fill:url(#SVGID_276_);}
	.st439{fill:url(#SVGID_277_);}
	.st440{fill:url(#SVGID_278_);}
	.st441{fill:url(#SVGID_279_);}
	.st442{fill:url(#SVGID_280_);}
	.st443{fill:url(#SVGID_281_);}
	.st444{fill:url(#SVGID_282_);}
	.st445{fill:url(#SVGID_283_);}
	.st446{fill:url(#SVGID_284_);}
	.st447{opacity:0;fill:url(#SVGID_285_);}
	.st448{opacity:0.1111;fill:url(#SVGID_286_);}
	.st449{opacity:0.2222;fill:url(#SVGID_287_);}
	.st450{opacity:0.3333;fill:url(#SVGID_288_);}
	.st451{opacity:0.4444;fill:url(#SVGID_289_);}
	.st452{opacity:0.5556;fill:url(#SVGID_290_);}
	.st453{opacity:0.6667;fill:url(#SVGID_291_);}
	.st454{opacity:0.7778;fill:url(#SVGID_292_);}
	.st455{opacity:0.8889;fill:url(#SVGID_293_);}
	.st456{fill:url(#SVGID_294_);}
	.st457{fill:url(#SVGID_295_);}
	.st458{opacity:0.5;fill:url(#SVGID_296_);}
</style>
<g>
	<path d="M42.72,10.4c-0.03-0.07-0.07-0.15-0.1-0.22c-0.02-0.04-0.04-0.08-0.06-0.12c-0.02-0.04-0.04-0.08-0.06-0.12c0,0,0,0,0-0.01
		c-0.07-0.14-0.15-0.28-0.23-0.41c-0.27-0.44-0.59-0.84-0.95-1.21C41.3,8.31,41.3,8.3,41.29,8.29c0,0-0.01-0.01-0.01-0.01
		c-0.03-0.03-0.06-0.06-0.09-0.08l0,0c-0.01-0.01-0.02-0.02-0.03-0.03c-0.56-0.53-1.2-0.96-1.93-1.28
		c-0.79-0.36-1.62-0.54-2.49-0.54c-0.98,0-1.87,0.17-2.67,0.52c-0.8,0.35-1.49,0.82-2.06,1.41c-0.57,0.59-1.01,1.28-1.33,2.08
		c-0.31,0.79-0.47,1.62-0.47,2.49c0,0.87,0.15,1.69,0.46,2.48c0.31,0.79,0.74,1.48,1.31,2.08c0.57,0.6,1.25,1.07,2.05,1.43
		c0.8,0.36,1.69,0.54,2.66,0.54c0.87,0,1.7-0.17,2.49-0.52c0.79-0.35,1.49-0.82,2.09-1.41c0.6-0.59,1.07-1.28,1.43-2.07
		c0.36-0.78,0.54-1.61,0.54-2.48C43.25,12.02,43.07,11.19,42.72,10.4 M39.91,14.16c-0.2,0.42-0.46,0.79-0.79,1.11
		c-0.33,0.32-0.7,0.58-1.12,0.78c-0.42,0.2-0.85,0.29-1.29,0.29c-0.54,0-1.03-0.1-1.46-0.3c-0.43-0.2-0.79-0.46-1.08-0.78
		c-0.3-0.32-0.52-0.7-0.68-1.12c-0.16-0.42-0.24-0.85-0.24-1.28c0-0.45,0.08-0.88,0.25-1.29c0.16-0.41,0.39-0.78,0.69-1.11
		c0.3-0.33,0.66-0.59,1.09-0.79c0.43-0.2,0.91-0.29,1.46-0.29c0.45,0,0.88,0.1,1.29,0.3c0.36,0.17,0.68,0.39,0.97,0.66
		c0.01,0.01,0.02,0.02,0.03,0.02c0.01,0.01,0.01,0.01,0.02,0.02c0.02,0.02,0.05,0.05,0.07,0.07l0.01,0.01
		c0.01,0,0.01,0.01,0.02,0.01c0.33,0.33,0.59,0.7,0.79,1.12c0.03,0.06,0.06,0.13,0.08,0.19c0.06,0.16,0.11,0.32,0.15,0.49
		c0,0.01,0.01,0.03,0.01,0.04c0.01,0.04,0.02,0.08,0.02,0.13c0.01,0.05,0.01,0.11,0.02,0.17c0.01,0.09,0.01,0.19,0.01,0.28
		C40.21,13.31,40.11,13.74,39.91,14.16 M29.9,9.29l0.07-2.74l-2.59,0.51l0.01-3.77l-3.37,1.62l-0.03,2.81l-1.61,0.31l-0.09,2.74
		l1.69-0.33l-0.01,4.61c0,0.15,0,0.31,0,0.49c0,0.18,0,0.35,0.01,0.52c0.01,0.17,0.02,0.34,0.04,0.5c0.02,0.16,0.04,0.3,0.06,0.42
		c0.08,0.41,0.2,0.77,0.35,1.1c0.16,0.33,0.37,0.6,0.64,0.82c0.27,0.22,0.6,0.36,0.99,0.44c0.39,0.08,0.86,0.06,1.4-0.04
		c0.23-0.04,0.46-0.1,0.69-0.18c0.23-0.08,0.45-0.16,0.67-0.25c0.21-0.09,0.4-0.18,0.58-0.27c0.17-0.09,0.32-0.17,0.44-0.25
		l0.01-2.74c-0.07,0.05-0.17,0.1-0.29,0.17c-0.12,0.07-0.25,0.13-0.38,0.2c-0.13,0.06-0.26,0.12-0.39,0.17
		c-0.13,0.05-0.23,0.08-0.32,0.1c-0.33,0.06-0.58,0.04-0.75-0.08c-0.17-0.11-0.28-0.32-0.34-0.62c-0.01-0.07-0.02-0.15-0.03-0.26
		c-0.01-0.1-0.01-0.21-0.01-0.33c0-0.12-0.01-0.23-0.01-0.35c0-0.12,0-0.23-0.01-0.33l0.03-4.49L29.9,9.29z M22.14,14.36
		c-0.08-0.43-0.21-0.8-0.38-1.1c-0.17-0.31-0.39-0.57-0.65-0.79c-0.26-0.22-0.58-0.41-0.94-0.57c-0.36-0.16-0.78-0.3-1.25-0.43
		c-0.4-0.12-0.73-0.26-0.99-0.42c-0.26-0.15-0.42-0.38-0.48-0.69c-0.06-0.3,0-0.58,0.19-0.83C17.82,9.28,18.17,9.1,18.69,9
		c0.22-0.04,0.45-0.06,0.7-0.07c0.24,0,0.48,0.01,0.72,0.03c0.24,0.02,0.46,0.06,0.68,0.1c0.22,0.04,0.41,0.09,0.57,0.15l0-2.78
		c-0.2-0.02-0.42-0.04-0.68-0.06c-0.25-0.01-0.52-0.02-0.8-0.01c-0.28,0.01-0.56,0.03-0.85,0.06c-0.29,0.03-0.57,0.07-0.84,0.12
		c-0.89,0.17-1.61,0.44-2.18,0.79c-0.56,0.36-0.99,0.75-1.29,1.2c-0.3,0.44-0.48,0.91-0.55,1.39c-0.07,0.49-0.07,0.94,0.02,1.37
		c0.08,0.41,0.2,0.76,0.37,1.06c0.17,0.3,0.39,0.56,0.65,0.78c0.26,0.22,0.57,0.41,0.92,0.57c0.35,0.16,0.75,0.3,1.2,0.42
		c0.54,0.14,0.93,0.3,1.17,0.48c0.24,0.18,0.39,0.41,0.44,0.69c0.07,0.34-0.01,0.63-0.23,0.88c-0.22,0.25-0.6,0.42-1.13,0.52
		C17.29,16.77,17,16.8,16.7,16.8c-0.3,0-0.6-0.02-0.89-0.05c-0.29-0.03-0.57-0.08-0.83-0.14c-0.26-0.06-0.5-0.12-0.7-0.19l0.03,2.81
		c0.23,0.05,0.49,0.08,0.78,0.11c0.29,0.02,0.59,0.03,0.9,0.02c0.31-0.01,0.62-0.02,0.93-0.05c0.31-0.03,0.6-0.07,0.87-0.12
		c0.95-0.18,1.72-0.45,2.33-0.81c0.61-0.35,1.07-0.75,1.4-1.19c0.33-0.44,0.53-0.91,0.62-1.4C22.22,15.3,22.22,14.82,22.14,14.36
		 M11.58,3.16c-0.05-0.25-0.14-0.47-0.28-0.66c-0.14-0.19-0.3-0.35-0.5-0.47c-0.2-0.12-0.42-0.2-0.66-0.25
		C9.89,1.75,9.63,1.75,9.36,1.8C9.07,1.86,8.81,1.96,8.58,2.1C8.35,2.24,8.16,2.41,8.01,2.61C7.86,2.82,7.76,3.04,7.7,3.3
		c-0.06,0.25-0.06,0.53,0,0.82c0.05,0.25,0.14,0.47,0.28,0.66c0.14,0.19,0.3,0.35,0.5,0.47c0.2,0.12,0.42,0.2,0.67,0.24
		C9.4,5.53,9.65,5.52,9.92,5.47c0.28-0.06,0.54-0.15,0.77-0.29c0.23-0.14,0.42-0.31,0.56-0.51c0.15-0.2,0.25-0.43,0.31-0.69
		C11.63,3.73,11.64,3.45,11.58,3.16 M12.88,16.02c-0.18,0.08-0.36,0.14-0.55,0.17c-0.22,0.04-0.43,0.03-0.62-0.05
		c-0.19-0.08-0.32-0.26-0.37-0.55c-0.05-0.24-0.07-0.53-0.07-0.87c0-0.34,0-0.65,0.01-0.92l0.04-6.74L7.9,7.72
		C7.9,7.86,7.9,8.1,7.9,8.46c0,0.36,0,0.76,0,1.22c0,0.46-0.01,0.95-0.01,1.46c0,0.51-0.01,1-0.01,1.46c0,0.46,0,0.87,0,1.22
		c0,0.35,0,0.6-0.01,0.73c0,0.22,0,0.45,0.01,0.68c0.01,0.24,0.02,0.47,0.03,0.7c0.01,0.23,0.03,0.44,0.05,0.65
		c0.02,0.21,0.05,0.39,0.08,0.56c0.08,0.39,0.2,0.74,0.36,1.05c0.17,0.31,0.38,0.56,0.65,0.75c0.27,0.19,0.58,0.32,0.95,0.39
		c0.36,0.07,0.78,0.05,1.26-0.04c0.2-0.04,0.4-0.09,0.6-0.15c0.2-0.06,0.39-0.12,0.57-0.19c0.18-0.07,0.35-0.14,0.51-0.21
		c0.16-0.07,0.3-0.14,0.42-0.2c0-0.47,0.01-0.93,0.01-1.39c0-0.46,0-0.92,0.01-1.39C13.22,15.85,13.06,15.94,12.88,16.02
		 M6.57,16.05c-0.18,0.08-0.36,0.14-0.55,0.17C5.8,16.27,5.6,16.25,5.4,16.17c-0.19-0.08-0.32-0.26-0.37-0.55
		c-0.05-0.24-0.07-0.53-0.07-0.87c0-0.34,0-0.65,0.01-0.92l0.07-12.5L1.63,2c0,0.1,0,0.35,0,0.74c0,0.39,0,0.88-0.01,1.46
		C1.61,4.77,1.61,5.42,1.61,6.12c0,0.71-0.01,1.43-0.01,2.17c-0.01,0.74-0.01,1.46-0.01,2.17c0,0.71-0.01,1.35-0.01,1.93
		c-0.01,0.58-0.01,1.06-0.01,1.46c0,0.39,0,0.64,0,0.74c0,0.22,0,0.45,0.01,0.68c0.01,0.24,0.02,0.47,0.03,0.7
		c0.01,0.23,0.03,0.44,0.05,0.65c0.02,0.21,0.05,0.39,0.08,0.56c0.08,0.39,0.2,0.74,0.36,1.05c0.17,0.31,0.38,0.56,0.65,0.75
		c0.27,0.19,0.58,0.32,0.95,0.39c0.36,0.07,0.78,0.05,1.26-0.04c0.2-0.04,0.4-0.09,0.6-0.15c0.2-0.06,0.39-0.12,0.57-0.19
		c0.18-0.07,0.35-0.14,0.51-0.21c0.16-0.07,0.3-0.14,0.42-0.2c0-0.47,0.01-0.93,0.01-1.39c0-0.46,0-0.92,0.01-1.39
		C6.91,15.89,6.75,15.97,6.57,16.05"/>
	<g>
		<path class="st48" d="M23.86,27.71c0-0.52,0.28-1.23,0.69-1.97c0.99-1.75,3.47-4.51,4.33-4.51c0.29,0,0.6,0.2,0.6,0.67
			c0,0.2-0.01,0.32-0.1,0.64c-0.11,0.41-0.58,1.7-0.58,1.77c0,0.04,0.04,0.08,0.04,0.14c0,0.08-0.04,0.09-0.13,0.09
			c-0.2,0-0.33-0.14-0.33-0.26c0-0.17,0.74-1.84,0.74-2.58c0-0.08-0.01-0.1-0.06-0.1c-0.58,0-2.83,2.28-3.73,3.72
			c-0.42,0.67-1.08,1.78-1.08,2.56c0,0.31,0.16,0.42,0.66,0.42c0.57,0,2.53-0.66,3.28-1.1l0.22-0.12c0.11,0,0.27,0.16,0.27,0.24
			c0,0.05-0.04,0.08-0.12,0.14c-0.71,0.46-2.75,1.2-3.5,1.2C24.28,28.61,23.86,28.33,23.86,27.71"/>
		<path class="st48" d="M28.67,26.04c0-0.24,0.05-0.6,0.21-1.01c0.09-0.23,0.37-0.9,0.48-0.92h0.03c0.14,0,0.25,0.11,0.25,0.2
			c0,0.07-0.04,0.15-0.04,0.23v0.01c-0.01,0.08-0.03,0.12-0.07,0.13c-0.06,0.01-0.34,0.67-0.41,1.05c-0.02,0.1-0.04,0.3-0.04,0.39
			l0.01,0.05c0.05-0.01,0.69-0.89,0.99-1.43c0.24-0.43,0.34-0.54,0.47-0.54c0.1,0,0.22,0.07,0.27,0.19v0.01
			c0,0.03-0.02,0.08-0.08,0.2c-0.24,0.51-0.43,1.83-0.46,1.88l-0.09,0.04h-0.02c-0.12,0-0.29-0.11-0.3-0.21
			c0-0.08,0.05-0.46,0.05-0.47c-0.04,0.01-0.63,0.75-0.75,0.77C28.91,26.61,28.67,26.54,28.67,26.04"/>
		<path class="st48" d="M30.67,26.26c0-0.68,0.61-1.9,1.07-1.9c0.2,0,0.48,0.24,0.54,0.24c0.03-0.06,0.27-0.4,0.4-0.4
			c0.14,0,0.28,0.08,0.28,0.17c0,0.1-0.36,0.99-0.36,1.63c0,0.41,0.11,0.52,0.11,0.6c0,0.07-0.06,0.14-0.15,0.14
			c-0.13,0-0.25-0.07-0.3-0.16c-0.04-0.07-0.08-0.45-0.08-0.67l0.01-0.24c0,0-0.54,0.94-0.69,1.09c-0.08,0.08-0.16,0.12-0.25,0.12
			C30.83,26.86,30.69,26.56,30.67,26.26 M32.08,24.93c-0.12-0.22-0.15-0.28-0.19-0.28c-0.28,0.12-0.8,1.09-0.8,1.73
			c0,0.06,0.01,0.11,0.03,0.11C31.16,26.49,31.67,25.62,32.08,24.93"/>
		<path class="st48" d="M33.31,26.69c-0.22,0-0.34-0.16-0.35-0.33c0-0.61,0.5-1.7,0.66-2.01c0.07-0.13,0.1-0.16,0.16-0.16
			c0.11,0,0.32,0.11,0.33,0.25c0,0.03-0.02,0.06-0.07,0.08c-0.06,0.02-0.17,0.27-0.63,1.39c0.05-0.01,1.08-1.85,1.35-1.85
			c0.14,0,0.3,0.11,0.3,0.27c0,0.3-0.39,1.17-0.39,1.92v0.05c0.01,0.1,0.1,0.15,0.1,0.21c0,0.06-0.05,0.08-0.13,0.08
			c-0.16,0-0.32-0.13-0.35-0.38l-0.01-0.11c0-0.61,0.2-0.97,0.27-1.28c-0.17,0.03-1.04,1.83-1.21,1.86H33.31z"/>
		<path class="st48" d="M35.5,27.04c-0.19,0-0.47-0.1-0.47-0.6c0-1.01,0.41-1.9,0.98-1.92c0.16,0,0.3,0.05,0.5,0.13l0.48-0.97
			c0.32-0.64,0.28-0.65,0.42-0.65c0.12,0,0.25,0.07,0.25,0.17c0,0.05-0.03,0.14-0.11,0.36c-0.34,0.99-0.58,2.14-0.58,2.74v0.09
			c0.01,0.19,0.1,0.22,0.1,0.27c0,0.1-0.1,0.19-0.22,0.19c-0.14,0-0.22-0.06-0.31-0.15c-0.03-0.04-0.05-0.13-0.05-0.24
			c0-0.37,0.12-0.99,0.12-1.06v-0.01c-0.55,1.11-0.72,1.64-1.07,1.66H35.5z M36.34,24.93c-0.03-0.08-0.06-0.13-0.17-0.13
			c-0.29,0.01-0.68,0.83-0.68,1.68l0.01,0.13C35.71,26.26,36.15,25.4,36.34,24.93"/>
		<path class="st48" d="M37.31,25.97c0-0.2,0.05-0.49,0.13-0.73c0.17-0.52,0.65-1.21,0.8-1.23c0.08,0,0.13,0.08,0.27,0.08
			c0.33,0,0.52,0.24,0.56,0.55c0,0.33-0.16,1.07-0.82,1.65c-0.16,0.14-0.3,0.21-0.42,0.21C37.42,26.45,37.35,26.32,37.31,25.97
			 M38.03,25.85c0.53-0.54,0.63-1.22,0.63-1.37l-0.01-0.03l-0.11,0.03l-0.08-0.02l-0.1,0.04c-0.07,0-0.56,0.71-0.66,1.59l0.01,0.03
			C37.73,26.12,37.89,26,38.03,25.85"/>
		<path class="st48" d="M41.5,26.7c-0.23,0-0.33-0.15-0.34-0.44c0-0.2,0.03-0.49,0.08-0.83c0.23-1.3,1.11-3.37,1.43-3.79
			c0.05-0.06,0.08-0.09,0.13-0.09c0.07,0,0.26,0.14,0.27,0.23L43,21.94c-0.15,0.27-0.09,0.42-0.21,0.43c-0.04,0-0.05,0.02-0.13,0.19
			c-0.75,1.69-1.07,3.21-1.07,3.75c0.01,0.2,0.06,0.23,0.06,0.29c0,0.05-0.05,0.11-0.14,0.11H41.5z"/>
		<path class="st48" d="M41.99,25.97c0-0.2,0.05-0.49,0.13-0.73c0.17-0.52,0.65-1.21,0.8-1.23c0.08,0,0.13,0.08,0.27,0.08
			c0.33,0,0.52,0.24,0.56,0.55c0,0.33-0.16,1.07-0.82,1.65c-0.16,0.14-0.3,0.21-0.42,0.21C42.11,26.45,42.03,26.32,41.99,25.97
			 M42.72,25.85c0.53-0.54,0.63-1.22,0.63-1.37l-0.01-0.03l-0.11,0.03l-0.08-0.02l-0.1,0.04c-0.07,0-0.56,0.71-0.66,1.59l0.01,0.03
			C42.41,26.12,42.57,26,42.72,25.85"/>
		<path class="st48" d="M46.12,26.69c-0.22,0-0.34-0.16-0.35-0.33c0-0.61,0.5-1.7,0.66-2.01c0.07-0.13,0.1-0.16,0.16-0.16
			c0.11,0,0.32,0.11,0.33,0.25c0,0.03-0.02,0.06-0.07,0.08c-0.06,0.02-0.17,0.27-0.63,1.39c0.05-0.01,1.08-1.85,1.35-1.85
			c0.14,0,0.3,0.11,0.3,0.27c0,0.3-0.39,1.17-0.39,1.92v0.05c0.01,0.1,0.1,0.15,0.1,0.21c0,0.06-0.05,0.08-0.13,0.08
			c-0.16,0-0.32-0.13-0.35-0.38L47.1,26.1c0-0.61,0.2-0.97,0.27-1.28c-0.17,0.03-1.04,1.83-1.21,1.86H46.12z"/>
		<path class="st48" d="M47.84,25.81c0.02-0.99,0.63-1.65,1.13-1.65c0.36,0,0.52,0.19,0.52,0.52c0,0.55-0.42,0.98-0.95,0.98
			c-0.13,0-0.14-0.02-0.25-0.04c-0.02,0.06-0.02,0.16-0.02,0.26c0,0.14,0.01,0.27,0.02,0.32c0.04,0.16,0.05,0.17,0.16,0.19
			c0.17,0.02,0.33,0.13,0.33,0.24l-0.02,0.05l-0.16,0.03C48.16,26.68,47.84,26.47,47.84,25.81 M49.03,24.87
			c0.03-0.07,0.05-0.24,0.05-0.33l-0.01-0.06c-0.21,0.01-0.66,0.68-0.7,0.83l0.01,0.04C48.46,25.35,48.94,25.11,49.03,24.87"/>
		<path class="st48" d="M49.28,26.27c0-0.63,0.3-1.62,0.72-1.84c0.09-0.05,0.11-0.05,0.27-0.05c0.42,0,0.54,0.13,0.54,0.45
			c0,0.1-0.03,0.14-0.12,0.14c-0.14,0-0.27-0.08-0.27-0.22c0-0.06-0.01-0.09-0.04-0.09c-0.39,0.11-0.66,1.12-0.66,1.68
			c0,0.13,0.01,0.21,0.04,0.21c0.02,0,0.53-0.51,0.63-0.62c0.04-0.05,0.06-0.06,0.12-0.06c0.15,0,0.29,0.07,0.29,0.16
			c0,0.15-0.61,0.87-0.95,0.87C49.54,26.91,49.28,26.7,49.28,26.27"/>
		<path class="st48" d="M50.92,25.81c0.02-0.99,0.63-1.65,1.13-1.65c0.36,0,0.52,0.19,0.52,0.52c0,0.55-0.42,0.98-0.95,0.98
			c-0.13,0-0.14-0.02-0.25-0.04c-0.02,0.06-0.02,0.16-0.02,0.26c0,0.14,0.01,0.27,0.02,0.32c0.04,0.16,0.05,0.17,0.16,0.19
			c0.17,0.02,0.33,0.13,0.33,0.24l-0.02,0.05l-0.16,0.03C51.23,26.68,50.92,26.47,50.92,25.81 M52.11,24.87
			c0.03-0.07,0.05-0.24,0.05-0.33l-0.01-0.06c-0.21,0.01-0.66,0.68-0.7,0.83l0.01,0.04C51.54,25.35,52.02,25.11,52.11,24.87"/>
		<path class="st48" d="M52.14,26.29C52.08,26.26,52,26.17,52,26.14c0-0.02,0.03-0.08,0.13-0.08c0.13,0,0.39,0.1,0.54,0.1
			c0.11,0,0.17-0.03,0.17-0.1c0-0.18-0.27-0.67-0.27-1c0-0.34,0.21-0.98,0.72-0.98c0.3,0,0.57,0.22,0.57,0.34
			c0,0.03-0.02,0.07-0.08,0.07c-0.1,0-0.25-0.11-0.33-0.11c-0.22,0-0.48,0.5-0.48,0.81c0,0.27,0.29,0.72,0.29,0.98
			c0,0.18-0.14,0.28-0.49,0.28C52.35,26.42,52.56,26.42,52.14,26.29"/>
		<path class="st48" d="M53.59,26.16c0-0.65,0.31-1.42,0.59-1.72c0.02-0.02,0.06-0.04,0.1-0.04c0.13,0,0.28,0.11,0.28,0.24
			c0,0.12-0.03,0.15-0.08,0.17c-0.16,0.08-0.45,0.82-0.45,1.41c0,0.41,0.11,0.3,0.11,0.35c0,0.05-0.07,0.1-0.16,0.1
			C53.78,26.67,53.59,26.56,53.59,26.16 M54.37,23.96c0-0.12,0.15-0.33,0.29-0.34c0.12,0,0.28,0.12,0.28,0.21
			c0,0.07-0.15,0.18-0.15,0.24c0,0.05,0.04,0.04,0.04,0.12c0,0.05-0.02,0.07-0.1,0.07C54.54,24.26,54.37,24.1,54.37,23.96"/>
		<path class="st48" d="M54.17,27.39c0-0.14,0.22-1.01,0.54-2.01c0.31-1,0.66-2.15,0.66-2.15c-1.18,0.02-1.17,0.22-1.29,0.22
			c-0.19,0-0.36-0.16-0.36-0.29c0-0.3,0.88-0.26,1.35-0.3h0.27c0.07,0,0.14-0.03,0.16-0.03c0.08-0.02,0.36-1.07,0.47-1.07
			c0.12,0,0.28,0.17,0.3,0.27c0,0.08-0.16,0.76-0.16,0.8c0.15,0,1.18,0.07,1.22,0.36c0,0.11-0.05,0.16-0.16,0.16
			c-0.08,0-0.11-0.04-0.21-0.12c-0.34-0.07-0.65-0.08-0.84-0.08l-0.17,0.01l-0.51,1.16c-0.45,1.44-0.8,3.2-0.85,3.25
			c-0.02,0.02-0.05,0.03-0.1,0.03C54.34,27.59,54.18,27.46,54.17,27.39"/>
		<path class="st48" d="M55.4,25.81c0.02-0.99,0.63-1.65,1.13-1.65c0.36,0,0.52,0.19,0.52,0.52c0,0.55-0.42,0.98-0.95,0.98
			c-0.13,0-0.14-0.02-0.25-0.04c-0.02,0.06-0.02,0.16-0.02,0.26c0,0.14,0.01,0.27,0.02,0.32c0.04,0.16,0.05,0.17,0.16,0.19
			c0.17,0.02,0.33,0.13,0.33,0.24l-0.02,0.05l-0.16,0.03C55.72,26.68,55.4,26.47,55.4,25.81 M56.59,24.87
			c0.03-0.07,0.05-0.24,0.05-0.33l-0.01-0.06c-0.21,0.01-0.66,0.68-0.7,0.83l0.01,0.04C56.02,25.35,56.5,25.11,56.59,24.87"/>
		<path class="st48" d="M56.63,26.29c-0.06-0.03-0.14-0.12-0.14-0.15c0-0.02,0.03-0.08,0.13-0.08c0.13,0,0.39,0.1,0.54,0.1
			c0.11,0,0.17-0.03,0.17-0.1c0-0.18-0.27-0.67-0.27-1c0-0.34,0.21-0.98,0.72-0.98c0.3,0,0.57,0.22,0.57,0.34
			c0,0.03-0.02,0.07-0.08,0.07c-0.1,0-0.25-0.11-0.33-0.11c-0.22,0-0.48,0.5-0.48,0.81c0,0.27,0.29,0.72,0.29,0.98
			c0,0.18-0.14,0.28-0.49,0.28C56.83,26.42,57.05,26.42,56.63,26.29"/>
		<path class="st48" d="M58.76,27.76c0-0.16,0.26-0.81,0.35-0.89c0.04-0.02,0.08-0.04,0.13-0.04c0.18,0,0.41,0.16,0.41,0.29
			L59.6,27.2c-0.13,0.09-0.24,0.91-0.46,0.91C58.98,28.11,58.76,27.98,58.76,27.76 M59.21,25.81c0-0.15,0.88-2.19,0.95-2.59
			c0.11-0.61,0.61-1.48,0.78-1.48c0.15,0,0.35,0.18,0.35,0.36c0,0-0.81,1.81-1.33,3.2c-0.31,0.8-0.31,0.81-0.41,0.81
			S59.21,25.97,59.21,25.81"/>
	</g>
	<path class="st47" d="M42.52,10l-6.08,6.11l-3.04-3.04l1.61-1.61l1.43,1.43l4.7-4.73c0.03,0.03,0.06,0.06,0.09,0.09
		c0,0,0.01,0.01,0.01,0.01c0.01,0.01,0.01,0.01,0.02,0.02c0.38,0.39,0.72,0.81,1.01,1.28C42.36,9.7,42.44,9.85,42.52,10
		C42.52,10,42.52,10,42.52,10"/>
</g>
</svg>
